<svg width="13" height="14" viewBox="0 0 13 14" fill="none" xmlns="http://www.w3.org/2000/svg">
<path d="M11.4167 3.36106L7.03832 0.710908C6.70621 0.510752 6.29387 0.510752 5.96176 0.710908L1.5834 3.36106C1.24824 3.56341 1.04004 3.94294 1.04004 4.34981V9.65013C1.04004 10.057 1.24824 10.4365 1.5834 10.6389L5.96176 13.289C6.12832 13.3897 6.31418 13.44 6.50004 13.44C6.6859 13.44 6.87176 13.3897 7.03832 13.289L11.4167 10.6389C11.7518 10.4365 11.96 10.057 11.96 9.65013V4.34981C11.96 3.94294 11.7518 3.56341 11.4167 3.36106ZM6.50004 10.36C4.77957 10.36 3.38004 8.85278 3.38004 6.99997C3.38004 5.14716 4.77957 3.63997 6.50004 3.63997C7.48316 3.63997 8.39113 4.13106 8.98121 4.96778L7.84168 5.67763C7.49941 5.27403 7.01293 5.03997 6.50004 5.03997C5.4966 5.03997 4.68004 5.91935 4.68004 6.99997C4.68004 8.0806 5.4966 8.95997 6.50004 8.95997C7.01293 8.95997 7.49941 8.72591 7.84168 8.32231L8.98121 9.03216C8.39113 9.86888 7.48316 10.36 6.50004 10.36ZM9.62004 7.27997H9.10004V7.83997H8.58004V7.27997H8.06004V6.71997H8.58004V6.15997H9.10004V6.71997H9.62004V7.27997ZM11.44 7.27997H10.92V7.83997H10.4V7.27997H9.88004V6.71997H10.4V6.15997H10.92V6.71997H11.44V7.27997Z" fill="url(#paint0_linear_2023_12)"/>
<defs>
<linearGradient id="paint0_linear_2023_12" x1="7.93472" y1="12.1216" x2="11.2244" y2="13.4632" gradientUnits="userSpaceOnUse">
<stop offset="0.0336538" stop-color="#CDD1CC"/>
<stop offset="0.293269" stop-color="#697A64"/>
<stop offset="0.355769" stop-color="#697A64"/>
<stop offset="1" stop-color="#CDD1CC"/>
</linearGradient>
</defs>
</svg>
