<svg width="66" height="15" viewBox="0 0 66 15" fill="none" xmlns="http://www.w3.org/2000/svg">
<g clip-path="url(#clip0_2098_319)">
<path d="M13.4895 1.93384C13.911 1.93384 14.2682 2.09113 14.5609 2.40573C14.8536 2.72032 15 3.10412 15 3.55714V13.2214C15 13.6744 14.8536 14.0582 14.5609 14.3728C14.2682 14.6874 13.911 14.8447 13.4895 14.8447H1.51054C1.08899 14.8447 0.73185 14.6874 0.43911 14.3728C0.14637 14.0582 0 13.6744 0 13.2214V3.55714C0 3.10412 0.14637 2.72032 0.43911 2.40573C0.73185 2.09113 1.08899 1.93384 1.51054 1.93384H13.4895ZM13.4895 5.18044V3.55714L7.48244 7.59651L1.51054 3.55714V5.18044L7.48244 9.18206L13.4895 5.18044Z" fill="#DEDED1"/>
<g clip-path="url(#clip1_2098_319)">
<path d="M37.928 12.9359H35.8546V9.94053C35.8546 9.22591 35.8385 8.30665 34.7738 8.30665C33.693 8.30665 33.5278 9.08389 33.5278 9.88759V12.9359H31.4551V6.77542H33.4459V7.61463H33.4732C33.7511 7.13047 34.428 6.62049 35.4388 6.62049C37.5395 6.62049 37.928 7.8948 37.928 9.55449V12.9359ZM29.1129 5.93234C28.4451 5.93234 27.9089 5.43463 27.9089 4.822C27.9089 4.20938 28.4458 3.71167 29.1129 3.71167C29.4322 3.71167 29.7385 3.82865 29.9643 4.03688C30.1901 4.24511 30.3169 4.52752 30.3169 4.822C30.3169 5.11648 30.1901 5.3989 29.9643 5.60713C29.7385 5.81536 29.4322 5.93234 29.1129 5.93234ZM30.1517 12.9365H28.0727V6.77542H30.1517V12.9359V12.9365ZM38.9647 1.93384H27.0332C26.462 1.93384 26 2.35021 26 2.86342V13.9151C26 14.4284 26.462 14.8447 27.0332 14.8447H38.9626C39.5331 14.8447 40 14.429 40 13.9151V2.86342C40 2.35086 39.5331 1.93384 38.9626 1.93384H38.9647Z" fill="#DEDED1"/>
</g>
<g clip-path="url(#clip2_2098_319)">
<path d="M58.4132 1.19812C60.4618 1.19812 62.2095 1.86865 63.6562 3.2097C65.103 4.55075 65.8264 6.16538 65.8264 8.05359C65.8264 9.55557 65.3519 10.902 64.4028 12.0928C63.4537 13.2837 62.2384 14.1151 60.7569 14.5872C60.4329 14.6301 60.2708 14.5121 60.2708 14.2332V12.3664C60.2708 11.7871 60.0972 11.3579 59.75 11.079C60.7685 10.9717 61.5845 10.6821 62.1979 10.21C62.8113 9.73795 63.1181 8.91186 63.1181 7.73173C63.1181 7.0022 62.8634 6.37995 62.3542 5.86499C62.6088 5.30711 62.5856 4.69559 62.2847 4.03043C61.8681 3.92314 61.1968 4.15917 60.2708 4.7385C59.669 4.5883 59.044 4.5132 58.3958 4.5132C57.7477 4.5132 57.1343 4.5883 56.5556 4.7385C56.1389 4.48102 55.7627 4.29327 55.4271 4.17526C55.0914 4.05725 54.8542 4.00897 54.7153 4.03043H54.5069C54.2292 4.69559 54.206 5.30711 54.4375 5.86499C53.9282 6.37995 53.6736 7.0022 53.6736 7.73173C53.6736 8.91186 53.9861 9.73795 54.6111 10.21C55.2361 10.6821 56.0463 10.9717 57.0417 11.079C56.787 11.2936 56.6366 11.6047 56.5903 12.0124C55.6181 12.3986 54.9005 12.2055 54.4375 11.433C54.1597 11.0039 53.7778 10.7679 53.2917 10.725C53.2454 10.725 53.1933 10.7303 53.1354 10.7411C53.0775 10.7518 53.0197 10.7893 52.9618 10.8537C52.9039 10.9181 53.0023 11.0146 53.2569 11.1434C53.581 11.2936 53.8472 11.6262 54.0556 12.1411C54.0787 12.184 54.1019 12.2323 54.125 12.286C54.1481 12.3396 54.2234 12.4415 54.3507 12.5917C54.478 12.7419 54.6285 12.8546 54.8021 12.9297C54.9757 13.0048 55.213 13.0745 55.5139 13.1389C55.8148 13.2032 56.162 13.1818 56.5556 13.0745V14.2332C56.5556 14.5121 56.3935 14.6301 56.0694 14.5872C54.588 14.1151 53.3727 13.2837 52.4236 12.0928C51.4745 10.902 51 9.55557 51 8.05359C51 6.16538 51.7234 4.55075 53.1701 3.2097C54.6169 1.86865 56.3646 1.19812 58.4132 1.19812Z" fill="#DEDED1"/>
</g>
</g>
<defs>
<clipPath id="clip0_2098_319">
<rect width="66" height="15" fill="white"/>
</clipPath>
<clipPath id="clip1_2098_319">
<rect width="14" height="12.9109" fill="white" transform="translate(26 1.93384)"/>
</clipPath>
<clipPath id="clip2_2098_319">
<rect width="15" height="13.904" fill="white" transform="translate(51 0.940674)"/>
</clipPath>
</defs>
</svg>
