<svg width="19" height="19" viewBox="0 0 19 19" fill="none" xmlns="http://www.w3.org/2000/svg">
<g clip-path="url(#clip0_2023_10)">
<path d="M7.6 3.42004V5.32004H3.8V7.22004H1.9V9.12004H0.4275C0.243438 9.12004 0.0920314 9.2477 0.059375 9.42879C0.0564064 9.44215 0 9.75981 0 10.165C0 10.4307 0.0252344 10.7202 0.07125 11.0082C0.506172 10.9043 1.30328 10.7484 1.16375 10.2363C1.91336 11.1047 3.71242 10.8419 4.16813 10.4144C4.67727 11.1522 7.64305 10.8701 7.84938 10.2957C8.48766 11.0438 10.4663 11.0438 11.1031 10.2957C11.3095 10.8701 14.2634 11.1522 14.7725 10.4144C14.9343 10.5658 15.2713 10.692 15.6631 10.7588C15.7952 10.5079 15.917 10.2556 16.0313 9.98692C18.4448 9.95723 18.9659 8.222 18.9881 8.14629C19.0297 8.00083 18.9733 7.8509 18.8575 7.75442C18.8174 7.72028 17.9268 6.99739 16.4825 7.24379C16.0773 5.92418 15.0338 5.32301 14.9863 5.29629C14.8497 5.21911 14.6805 5.23098 14.5588 5.33192C14.5202 5.36309 13.6221 6.12458 13.7631 7.68317C13.7988 8.07504 13.9012 8.4209 14.06 8.72817C13.7483 8.90184 13.2124 9.12004 12.35 9.12004H12.16V7.22004H10.26V3.42004H7.6ZM15.6631 10.7588C15.6171 10.8479 15.5577 10.934 15.5088 11.02H18.9406C18.528 10.9161 17.6418 10.7766 17.7888 10.2363C17.3034 10.7974 16.3816 10.8805 15.6631 10.7588ZM15.5088 11.02H0.07125C0.163281 11.5782 0.353281 12.163 0.64125 12.73C2.70453 13.2154 4.87023 12.4762 4.8925 12.4688C5.09141 12.399 5.29922 12.5089 5.3675 12.7063C5.43727 12.9037 5.3393 13.1249 5.14188 13.1932C5.06914 13.2184 3.76438 13.6563 2.16125 13.6563C1.84359 13.6563 1.50961 13.6385 1.17563 13.5969C2.17313 14.9195 3.86383 15.96 6.46 15.96C10.5658 15.96 13.723 14.2159 15.5088 11.02ZM0.07125 11.02C0.0697657 11.0141 0.0727343 11.0141 0.07125 11.0082C0.0460157 11.0141 0.0222656 11.0141 0 11.02H0.07125ZM8.36 4.18004H9.5V5.32004H8.36V4.18004ZM4.56 6.08004H5.7V7.22004H4.56V6.08004ZM6.46 6.08004H7.6V7.22004H6.46V6.08004ZM8.36 6.08004H9.5V7.22004H8.36V6.08004ZM2.66 7.98004H3.8V9.12004H2.66V7.98004ZM4.56 7.98004H5.7V9.12004H4.56V7.98004ZM6.46 7.98004H7.6V9.12004H6.46V7.98004ZM8.36 7.98004H9.5V9.12004H8.36V7.98004ZM10.26 7.98004H11.4V9.12004H10.26V7.98004ZM6.08 11.78C6.12898 11.78 6.17945 11.7875 6.2225 11.8038C6.17648 11.8305 6.13938 11.8765 6.13938 11.9344C6.13938 12.0205 6.20766 12.1007 6.29375 12.1007C6.35164 12.1007 6.40953 12.065 6.43625 12.0175C6.45555 12.0621 6.46 12.1081 6.46 12.16C6.46 12.3693 6.2893 12.54 6.08 12.54C5.8707 12.54 5.7 12.3693 5.7 12.16C5.7 11.9507 5.8707 11.78 6.08 11.78Z" fill="url(#paint0_linear_2023_10)"/>
</g>
<defs>
<linearGradient id="paint0_linear_2023_10" x1="11.9973" y1="14.6764" x2="16.3576" y2="17.8542" gradientUnits="userSpaceOnUse">
<stop offset="0.0336538" stop-color="#CDD1CC"/>
<stop offset="0.293269" stop-color="#697A64"/>
<stop offset="0.355769" stop-color="#697A64"/>
<stop offset="1" stop-color="#CDD1CC"/>
</linearGradient>
<clipPath id="clip0_2023_10">
<rect width="19" height="19" fill="white"/>
</clipPath>
</defs>
</svg>
