<svg width="29" height="27" viewBox="0 0 29 27" fill="none" xmlns="http://www.w3.org/2000/svg">
<rect width="29" height="27" rx="5" fill="#B6AE9F"/>
<path d="M21.2881 8C21.7658 8 22.1706 8.1558 22.5023 8.4674C22.8341 8.77899 23 9.15914 23 9.60784V19.1801C23 19.6288 22.8341 20.009 22.5023 20.3206C22.1706 20.6322 21.7658 20.788 21.2881 20.788H7.71194C7.23419 20.788 6.82943 20.6322 6.49766 20.3206C6.16589 20.009 6 19.6288 6 19.1801V9.60784C6 9.15914 6.16589 8.77899 6.49766 8.4674C6.82943 8.1558 7.23419 8 7.71194 8H21.2881ZM21.2881 11.2157V9.60784L14.4801 13.6088L7.71194 9.60784V11.2157L14.4801 15.1792L21.2881 11.2157Z" fill="white"/>
</svg>
