<svg width="15" height="13" viewBox="0 0 15 13" fill="none" xmlns="http://www.w3.org/2000/svg">
<path d="M13.4895 0C13.911 0 14.2682 0.151229 14.5609 0.453686C14.8536 0.756143 15 1.12514 15 1.56068V10.8522C15 11.2877 14.8536 11.6567 14.5609 11.9592C14.2682 12.2616 13.911 12.4128 13.4895 12.4128H1.51054C1.08899 12.4128 0.73185 12.2616 0.43911 11.9592C0.14637 11.6567 0 11.2877 0 10.8522V1.56068C0 1.12514 0.14637 0.756143 0.43911 0.453686C0.73185 0.151229 1.08899 0 1.51054 0H13.4895ZM13.4895 3.12136V1.56068L7.48244 5.44423L1.51054 1.56068V3.12136L7.48244 6.96862L13.4895 3.12136Z" fill="#DEDED1"/>
</svg>
