<svg width="15" height="14" viewBox="0 0 15 14" fill="none" xmlns="http://www.w3.org/2000/svg">
<path d="M7.41319 0.247559C9.46181 0.247559 11.2095 0.892219 12.6562 2.18154C14.103 3.47086 14.8264 5.02321 14.8264 6.83857C14.8264 8.28261 14.3519 9.57709 13.4028 10.722C12.4537 11.8669 11.2384 12.6663 9.75694 13.1201C9.43287 13.1614 9.27083 13.0479 9.27083 12.7798V10.985C9.27083 10.428 9.09722 10.0155 8.75 9.74728C9.76852 9.64413 10.5845 9.36564 11.1979 8.9118C11.8113 8.45796 12.1181 7.66374 12.1181 6.52913C12.1181 5.82774 11.8634 5.2295 11.3542 4.7344C11.6088 4.19804 11.5856 3.61011 11.2847 2.97061C10.8681 2.86746 10.1968 3.09438 9.27083 3.65137C8.66898 3.50696 8.04398 3.43476 7.39583 3.43476C6.74768 3.43476 6.13426 3.50696 5.55556 3.65137C5.13889 3.40382 4.76273 3.22331 4.42708 3.10985C4.09143 2.99639 3.85417 2.94998 3.71528 2.97061H3.50694C3.22917 3.61011 3.20602 4.19804 3.4375 4.7344C2.92824 5.2295 2.67361 5.82774 2.67361 6.52913C2.67361 7.66374 2.98611 8.45796 3.61111 8.9118C4.23611 9.36564 5.0463 9.64413 6.04167 9.74728C5.78704 9.95357 5.63657 10.2527 5.59028 10.6446C4.61806 11.016 3.90046 10.8303 3.4375 10.0877C3.15972 9.67508 2.77778 9.44816 2.29167 9.4069C2.24537 9.4069 2.19329 9.41206 2.13542 9.42237C2.07755 9.43268 2.01968 9.46879 1.96181 9.53067C1.90394 9.59256 2.00231 9.68539 2.25694 9.80917C2.58102 9.95357 2.84722 10.2733 3.05556 10.7684C3.0787 10.8097 3.10185 10.8561 3.125 10.9077C3.14815 10.9592 3.22338 11.0572 3.35069 11.2016C3.47801 11.346 3.62847 11.4543 3.80208 11.5265C3.97569 11.5987 4.21296 11.6658 4.51389 11.7277C4.81481 11.7896 5.16204 11.7689 5.55556 11.6658V12.7798C5.55556 13.0479 5.39352 13.1614 5.06944 13.1201C3.58796 12.6663 2.37268 11.8669 1.42361 10.722C0.474537 9.57709 0 8.28261 0 6.83857C0 5.02321 0.72338 3.47086 2.17014 2.18154C3.6169 0.892219 5.36458 0.247559 7.41319 0.247559Z" fill="#DEDED1"/>
</svg>
