<svg width="30" height="22" viewBox="0 0 30 22" fill="none" xmlns="http://www.w3.org/2000/svg">
<mask id="mask0_2057_402" style="mask-type:luminance" maskUnits="userSpaceOnUse" x="0" y="0" width="30" height="22">
<path d="M0 0.510864H29.4841V21.3207H0V0.510864Z" fill="white"/>
</mask>
<g mask="url(#mask0_2057_402)">
<path d="M11.7764 15.1525L15.8454 6.65626C15.8601 6.62567 15.8891 6.59951 15.9276 6.58208C15.9661 6.56465 16.0119 6.55698 16.0574 6.56034L17.7446 6.68228C17.7747 6.68435 17.8037 6.69118 17.8296 6.70225C17.8554 6.71333 17.8774 6.72836 17.8938 6.74623C17.9103 6.76411 17.9209 6.78438 17.9248 6.80553C17.9286 6.82668 17.9257 6.84818 17.9162 6.86842L13.9428 15.2476C13.9295 15.2759 13.9039 15.3006 13.8695 15.3181C13.8352 15.3356 13.794 15.3451 13.7516 15.3451L11.9664 15.3402C11.9345 15.3402 11.9031 15.3347 11.8748 15.3243C11.832 15.3086 11.7986 15.2827 11.7806 15.2512C11.7625 15.2197 11.761 15.1847 11.7764 15.1525Z" fill="#FBF3D1"/>
<path d="M6.76512 11.1929C6.63003 11.2303 6.63072 11.2663 6.76743 11.3011C8.16251 11.6571 9.50772 11.9912 10.8031 12.3033C10.8331 12.3107 10.8592 12.3244 10.878 12.3426C10.8967 12.3607 10.9071 12.3825 10.9079 12.4049C10.9193 12.8366 10.9035 13.2684 10.8606 13.6991C10.8563 13.7422 10.8431 13.7846 10.8215 13.825C10.7938 13.8754 10.7447 13.8903 10.6741 13.8698L4.08967 11.9408C4.07501 11.9363 4.06264 11.9287 4.0542 11.9192C4.04577 11.9096 4.04167 11.8984 4.04245 11.8871L4.12768 10.6247C4.12876 10.6094 4.13591 10.5945 4.14832 10.5819C4.16074 10.5692 4.17793 10.5593 4.19794 10.5532L10.6361 8.60553C10.6522 8.60056 10.6697 8.5981 10.6873 8.59834C10.7049 8.59858 10.7222 8.60151 10.7381 8.60691C10.7542 8.61232 10.7685 8.62005 10.7801 8.62962C10.7917 8.63919 10.8003 8.65037 10.8054 8.66243C10.8399 8.74535 10.8615 8.82664 10.8699 8.9063C10.9121 9.31274 10.9236 9.7178 10.9044 10.1216C10.9037 10.1333 10.8981 10.1447 10.8882 10.1543C10.8784 10.1638 10.8648 10.1711 10.8491 10.1752C9.55652 10.5121 8.2612 10.8438 6.96322 11.1702C6.93017 11.1783 6.89677 11.1829 6.86302 11.184C6.81384 11.1856 6.78125 11.1886 6.76512 11.1929ZM22.8547 11.1791L18.7442 10.1663C18.7362 10.1644 18.7292 10.1608 18.7242 10.156C18.7192 10.1512 18.7166 10.1454 18.7165 10.1394C18.705 9.73845 18.7073 9.33005 18.7235 8.91443C18.7254 8.82772 18.7472 8.7418 18.788 8.65999C18.8026 8.63293 18.8294 8.62317 18.8686 8.63073C18.9991 8.65617 19.1211 8.68544 19.2348 8.71852C21.3209 9.32436 23.4052 9.93321 25.4875 10.5451C25.5321 10.5581 25.5543 10.5816 25.5543 10.6158L25.5578 11.8928C25.5577 11.9083 25.5512 11.9233 25.5392 11.9362C25.5271 11.949 25.5099 11.9591 25.4898 11.9652L18.9354 13.8754C18.9094 13.883 18.8804 13.884 18.8536 13.878C18.8267 13.8721 18.8036 13.8597 18.7884 13.843C18.7785 13.8319 18.7724 13.8194 18.7707 13.8064C18.7024 13.3213 18.6851 12.845 18.7188 12.3773C18.72 12.363 18.7272 12.3492 18.7395 12.3378C18.7518 12.3263 18.7687 12.3177 18.788 12.3131C20.2077 11.9755 21.5639 11.6319 22.857 11.2824C22.9898 11.2466 22.9891 11.2122 22.8547 11.1791Z" fill="#DEDED1"/>
</g>
</svg>
