<svg width="11" height="11" viewBox="0 0 11 11" fill="none" xmlns="http://www.w3.org/2000/svg">
<g clip-path="url(#clip0_2193_51)">
<path d="M11 2.93699C11 3.75832 10.714 4.44765 10.142 5.00499L8.217 6.94099C7.645 7.51299 6.952 7.79899 6.138 7.79899C5.42667 7.79899 4.79967 7.56799 4.257 7.10599L5.522 5.84099C5.71267 5.96565 5.918 6.02799 6.138 6.02799C6.46067 6.02799 6.73567 5.91432 6.963 5.68699L8.888 3.75099C9.11533 3.53832 9.229 3.26699 9.229 2.93699C9.229 2.61432 9.11717 2.34115 8.8935 2.11749C8.66983 1.89382 8.39667 1.78199 8.074 1.78199C7.89067 1.78199 7.70917 1.82599 7.5295 1.91399C7.34983 2.00199 7.23067 2.12665 7.172 2.28799H4.554L6.006 0.868986C6.59267 0.296986 7.282 0.0109863 8.074 0.0109863C8.88067 0.0109863 9.57 0.296986 10.142 0.868986C10.714 1.44099 11 2.13032 11 2.93699ZM6.743 3.91599L5.478 5.18099C5.28733 5.05632 5.082 4.99399 4.862 4.99399C4.53933 4.99399 4.26433 5.10765 4.037 5.33499L2.112 7.27099C1.88467 7.48365 1.771 7.75499 1.771 8.08499C1.771 8.40765 1.88283 8.68082 2.1065 8.90449C2.33017 9.12815 2.60333 9.23999 2.926 9.23999C3.10933 9.23999 3.29083 9.19599 3.4705 9.10799C3.65017 9.01999 3.76933 8.89532 3.828 8.73399H6.446L4.994 10.153C4.40733 10.725 3.718 11.011 2.926 11.011C2.11933 11.011 1.43 10.725 0.858 10.153C0.286 9.58099 0 8.89165 0 8.08499C0 7.26365 0.286 6.57432 0.858 6.01699L2.783 4.08099C3.355 3.50899 4.048 3.22299 4.862 3.22299C5.57333 3.22299 6.20033 3.45399 6.743 3.91599Z" fill="#FBF3D1"/>
</g>
<defs>
<clipPath id="clip0_2193_51">
<rect width="11" height="11" fill="white"/>
</clipPath>
</defs>
</svg>
