<svg width="29" height="26" viewBox="0 0 29 26" fill="none" xmlns="http://www.w3.org/2000/svg">
<rect y="1.33514e-05" width="29" height="26" rx="5" fill="#B6AE9F"/>
<path fill-rule="evenodd" clip-rule="evenodd" d="M14.5 5C9.80559 5 6 8.5817 6 13C6 17.4182 9.80559 21 14.5 21C19.1944 21 23 17.4183 23 13C23 8.5817 19.1944 5 14.5 5ZM14.5 19.4C10.7505 19.4 7.70001 16.529 7.70001 13C7.70001 9.47101 10.7504 6.60001 14.5 6.60001C18.2496 6.60001 21.3 9.47101 21.3 13C21.3 16.529 18.2496 19.4 14.5 19.4ZM15.5644 9.8C15.5644 10.38 15.1156 10.8 14.5086 10.8C13.8771 10.8 13.4393 10.38 13.4393 9.7889C13.4393 9.22077 13.8889 8.80002 14.5086 8.80002C15.1156 8.80002 15.5644 9.22077 15.5644 9.8ZM13.6519 12.2H15.3518V17H13.6519V12.2Z" fill="white"/>
</svg>
