<svg width="11" height="11" viewBox="0 0 11 11" fill="none" xmlns="http://www.w3.org/2000/svg">
<g clip-path="url(#clip0_2228_129)">
<path d="M0 0H11V11H0V0ZM10.0989 8.3765C10.0187 7.87462 9.69192 7.45296 8.72254 7.05971C8.38521 6.90158 8.01029 6.79158 7.89892 6.53721C7.85721 6.38596 7.85079 6.30346 7.87783 6.21408C7.94658 5.918 8.29721 5.82908 8.57221 5.91158C8.75096 5.96658 8.91596 6.10408 9.01954 6.32408C9.49346 6.01425 9.49346 6.01425 9.82392 5.80846C9.70017 5.61596 9.63875 5.533 9.55533 5.45096C9.26658 5.12783 8.88204 4.96283 8.25642 4.97704L7.93329 5.01783C7.62346 5.09346 7.32829 5.25846 7.14954 5.47846C6.62704 6.07017 6.77783 7.10142 7.41033 7.52767C8.03596 7.99517 8.95079 8.09783 9.06767 8.53829C9.17767 9.07454 8.66892 9.24642 8.16658 9.18454C7.79488 9.10204 7.58908 8.91596 7.36221 8.57221L6.52346 9.05392C6.61971 9.27392 6.72971 9.36971 6.89471 9.56221C7.69221 10.367 9.68596 10.3258 10.0439 9.10204C10.0572 9.06079 10.1539 8.77892 10.0778 8.34579L10.0989 8.3765ZM5.98171 5.05588H4.95138C4.95138 5.94413 4.94725 6.82688 4.94725 7.7165C4.94725 8.28117 4.97613 8.79954 4.884 8.95904C4.73275 9.27483 4.34317 9.2345 4.16625 9.17904C3.98475 9.08921 3.89263 8.96546 3.78583 8.78717C3.75696 8.73904 3.73542 8.69733 3.72763 8.69733L2.89117 9.21296C3.03096 9.50171 3.23492 9.75012 3.498 9.90825C3.88988 10.142 4.4165 10.2176 4.96788 10.0939C5.32675 9.99029 5.63613 9.77717 5.79792 9.44717C6.03167 9.02092 5.98217 8.49842 5.97988 7.91358C5.98537 6.97217 5.97988 6.03029 5.97988 5.08154L5.98171 5.05588Z" fill="url(#paint0_linear_2228_129)"/>
</g>
<defs>
<linearGradient id="paint0_linear_2228_129" x1="6.9452" y1="9.87402" x2="10.084" y2="11.3837" gradientUnits="userSpaceOnUse">
<stop offset="0.0336538" stop-color="#CDD1CC"/>
<stop offset="0.293269" stop-color="#697A64"/>
<stop offset="0.355769" stop-color="#697A64"/>
<stop offset="1" stop-color="#CDD1CC"/>
</linearGradient>
<clipPath id="clip0_2228_129">
<rect width="11" height="11" fill="white"/>
</clipPath>
</defs>
</svg>
