<svg width="14" height="13" viewBox="0 0 14 13" fill="none" xmlns="http://www.w3.org/2000/svg">
<g clip-path="url(#clip0_2098_508)">
<path d="M11.928 10.5776H9.8546V7.69783C9.8546 7.01078 9.8385 6.12698 8.7738 6.12698C7.693 6.12698 7.5278 6.87423 7.5278 7.64693V10.5776H5.4551V4.65482H7.4459V5.46165H7.4732C7.7511 4.99617 8.428 4.50586 9.4388 4.50586C11.5395 4.50586 11.928 5.73101 11.928 7.32668V10.5776ZM3.1129 3.84426C2.4451 3.84426 1.9089 3.36574 1.9089 2.77675C1.9089 2.18776 2.4458 1.70925 3.1129 1.70925C3.43222 1.70925 3.73846 1.82172 3.96426 2.02191C4.19005 2.22211 4.3169 2.49363 4.3169 2.77675C4.3169 3.05987 4.19005 3.3314 3.96426 3.53159C3.73846 3.73179 3.43222 3.84426 3.1129 3.84426ZM4.1517 10.5782H2.0727V4.65482H4.1517V10.5776V10.5782ZM12.9647 0H1.0332C0.462 0 0 0.400314 0 0.893725V11.5191C0 12.0125 0.462 12.4128 1.0332 12.4128H12.9626C13.5331 12.4128 14 12.0132 14 11.5191V0.893725C14 0.400935 13.5331 0 12.9626 0H12.9647Z" fill="#DEDED1"/>
</g>
<defs>
<clipPath id="clip0_2098_508">
<rect width="14" height="12.4128" fill="white"/>
</clipPath>
</defs>
</svg>
