<svg width="29" height="27" viewBox="0 0 29 27" fill="none" xmlns="http://www.w3.org/2000/svg">
<rect width="29" height="27" rx="5" fill="#B6AE9F"/>
<path d="M20.632 18.8973H18.2624V15.9304C18.2624 15.2226 18.244 14.3121 17.0272 14.3121C15.792 14.3121 15.6032 15.082 15.6032 15.878V18.8973H13.2344V12.7955H15.5096V13.6267H15.5408C15.8584 13.1472 16.632 12.642 17.7872 12.642C20.188 12.642 20.632 13.9042 20.632 15.5481V18.8973ZM10.5576 11.9604C9.7944 11.9604 9.1816 11.4675 9.1816 10.8607C9.1816 10.2539 9.7952 9.7609 10.5576 9.7609C10.9225 9.7609 11.2725 9.87677 11.5306 10.083C11.7886 10.2893 11.9336 10.569 11.9336 10.8607C11.9336 11.1523 11.7886 11.4321 11.5306 11.6383C11.2725 11.8446 10.9225 11.9604 10.5576 11.9604ZM11.7448 18.8979H9.3688V12.7955H11.7448V18.8973V18.8979ZM21.8168 8H8.1808C7.528 8 7 8.41241 7 8.92073V19.8672C7 20.3755 7.528 20.788 8.1808 20.788H21.8144C22.4664 20.788 23 20.3762 23 19.8672V8.92073C23 8.41305 22.4664 8 21.8144 8H21.8168Z" fill="white"/>
</svg>
