<svg width="66" height="45" viewBox="0 0 66 45" fill="none" xmlns="http://www.w3.org/2000/svg">
<g clip-path="url(#clip0_2498_154)">
<path d="M30.3366 35.7058C43.3633 28.5409 42.0766 41.2546 47.73 44.0637C49.4833 44.9329 51.8166 44.8073 54.2033 44.219C59.3866 42.9434 64.8133 39.4832 65.0566 39.3246C51.55 47.0909 45.81 33.7328 43.3633 28.5409C40.9166 23.3489 33.9266 28.5607 27.63 28.1443C16.0666 27.3842 36.5033 16.9177 27.17 3.69174C23.21 -1.91988 12.48 -0.647519 5.8533 6.44467C3.07663 9.41242 1.01996 13.3981 0.476631 18.3223C-1.37004 35.0183 17.31 42.874 30.3366 35.7058Z" fill="#FBF3D1"/>
<path d="M30.3365 35.7058C43.3631 28.5409 42.0765 41.2546 47.7298 44.0637C49.4831 44.9329 51.8165 44.8073 54.2031 44.219C50.5765 42.3353 45.8698 42.0411 43.5198 38.7429C42.4898 37.2987 42.0865 35.4513 40.8831 34.1426C38.7998 31.8787 35.2198 32.0407 32.1465 32.3811C30.1753 32.597 28.2042 32.814 26.2331 33.0321C24.9765 33.1709 23.6798 33.3064 22.4731 32.933C21.5031 32.6356 20.6631 32.0275 19.7431 31.6044C18.1498 30.8708 16.3631 30.6989 14.6431 30.3453C11.5298 29.7042 8.48646 28.3921 6.22312 26.1746C3.26646 23.2762 2.10312 19.0989 3.58312 15.2025C4.78979 12.0398 7.47312 9.86188 5.85312 6.44467C3.07646 9.41242 1.01979 13.3981 0.476454 18.3223C-1.37021 35.0183 17.3098 42.874 30.3365 35.7058Z" fill="#EBE3C0"/>
<path d="M12.4415 8.56143C10.4948 12.785 15.1498 13.9401 16.6798 10.6666C18.2115 7.39317 13.7248 5.77544 12.4415 8.56143Z" fill="#352F44"/>
<path d="M19.7414 9.05054C19.4448 13.6839 23.2831 12.9965 23.5298 9.39755C23.7748 5.79692 19.9364 5.99522 19.7414 9.05054Z" fill="#352F44"/>
<path d="M17.4017 13.9814C18.8967 13.6013 20.6083 17.2631 18.74 17.4349C16.8717 17.6084 15.905 14.3614 17.4017 13.9814Z" fill="#352F44"/>
</g>
<defs>
<clipPath id="clip0_2498_154">
<rect width="66" height="45" fill="white" transform="matrix(-1 0 0 1 66 0)"/>
</clipPath>
</defs>
</svg>
