<svg width="67" height="46" viewBox="0 0 67 46" fill="none" xmlns="http://www.w3.org/2000/svg">
<g clip-path="url(#clip0_2498_165)">
<path d="M36.1654 36.4076C22.965 29.1191 24.2688 42.0521 18.5401 44.9096C16.7634 45.7938 14.399 45.666 11.9805 45.0676C6.72802 43.77 1.229 40.2501 0.982422 40.0888C14.6692 47.9891 20.4857 34.4006 22.965 29.1191C25.4443 23.8377 32.5275 29.1393 38.9081 28.7157C50.6256 27.9425 29.9165 17.2956 39.3742 3.8416C43.387 -1.86678 54.2601 -0.572475 60.9751 6.642C63.7888 9.66091 65.8729 13.7153 66.4235 18.7244C68.2948 35.7083 49.3657 43.6994 36.1654 36.4076Z" fill="#FBF3D1"/>
<path d="M36.1654 36.4076C22.965 29.1191 24.2688 42.0521 18.5401 44.9096C16.7634 45.7938 14.399 45.666 11.9805 45.0676C15.6555 43.1514 20.4249 42.8522 22.8062 39.4971C23.85 38.028 24.2587 36.1487 25.4781 34.8174C27.5892 32.5146 31.2169 32.6793 34.3312 33.0256C36.3286 33.2452 38.326 33.466 40.3234 33.6879C41.5968 33.8291 42.9108 33.9669 44.1335 33.587C45.1165 33.2844 45.9677 32.6659 46.8999 32.2356C48.5145 31.4892 50.325 31.3144 52.0679 30.9547C55.2228 30.3025 58.3067 28.9679 60.6002 26.7121C63.5963 23.7638 64.7751 19.5144 63.2754 15.5508C62.0526 12.3336 59.3335 10.1181 60.9751 6.642C63.7888 9.66092 65.8729 13.7153 66.4235 18.7244C68.2948 35.7083 49.3657 43.6994 36.1654 36.4076Z" fill="#EBE3C0"/>
<path d="M54.2989 8.79524C56.2716 13.0917 51.5545 14.2666 50.0041 10.9367C48.452 7.60684 52.9985 5.96122 54.2989 8.79524Z" fill="#352F44"/>
<path d="M46.902 9.29279C47.2026 14.0061 43.3131 13.3068 43.0632 9.64578C42.8149 5.98308 46.7044 6.18479 46.902 9.29279Z" fill="#352F44"/>
<path d="M49.2731 14.3086C47.7582 13.922 46.0237 17.6469 47.9169 17.8217C49.8102 17.9982 50.7897 14.6952 49.2731 14.3086Z" fill="#352F44"/>
</g>
<defs>
<clipPath id="clip0_2498_165">
<rect width="67" height="46" fill="white"/>
</clipPath>
</defs>
</svg>
