<svg width="29" height="28" viewBox="0 0 29 28" fill="none" xmlns="http://www.w3.org/2000/svg">
<rect width="29" height="28" rx="5" fill="#B6AE9F"/>
<path d="M11.6 11.1414H16.4V17.4241H11.6V11.1414ZM22 9.57068V18.9948C22 19.8665 21.288 20.5655 20.4 20.5655H17.2L14 23.7068L10.8 20.5655H7.6C7.17565 20.5655 6.76869 20.4 6.46863 20.1054C6.16857 19.8109 6 19.4114 6 18.9948V9.57068C6 8.70681 6.72 8 7.6 8H20.4C20.8243 8 21.2313 8.16548 21.5314 8.46004C21.8314 8.7546 22 9.15411 22 9.57068ZM17.2 10.4267C17.2 9.96336 16.8 9.57068 16.288 9.57068H11.712C11.2 9.57068 10.8 9.96336 10.8 10.4267V18.1388C10.8 18.6021 11.2 18.9948 11.712 18.9948H16.288C16.8 18.9948 17.2 18.6021 17.2 18.1388V10.4267Z" fill="white"/>
</svg>
