<svg width="12" height="12" viewBox="0 0 12 12" fill="none" xmlns="http://www.w3.org/2000/svg">
<g clip-path="url(#clip0_2228_127)">
<path d="M7.115 6.00196C7.115 6.29839 6.99728 6.58268 6.78772 6.79233C6.57816 7.00198 6.29393 7.11983 5.9975 7.11996C5.70099 7.11996 5.41662 7.00217 5.20695 6.79251C4.99729 6.58284 4.8795 6.29847 4.8795 6.00196C4.8795 5.70554 4.99722 5.42125 5.20678 5.21159C5.41634 5.00194 5.70057 4.8841 5.997 4.88396C6.29351 4.88396 6.57788 5.00175 6.78755 5.21142C6.99721 5.42108 7.115 5.70545 7.115 6.00196ZM8.439 0.656963C7.766 0.656963 6.8855 1.13696 5.995 1.96796C5.105 1.14146 4.224 0.666963 3.5515 0.666963C3.3465 0.666963 3.16 0.713463 2.9985 0.805963C2.311 1.20246 2.157 2.43796 2.512 3.98846C0.99 4.45846 0 5.20996 0 6.00196C0 6.79696 0.995 7.55046 2.5215 8.01696C2.1695 9.57346 2.3265 10.811 3.0155 11.207C3.1755 11.3005 3.3605 11.3445 3.5665 11.3445C4.239 11.3445 5.12 10.8645 6.0105 10.0325C6.9005 10.8595 7.7815 11.334 8.454 11.334C8.659 11.334 8.8455 11.289 9.007 11.1965C9.694 10.8005 9.8485 9.56496 9.4935 8.01396C11.01 7.54796 12 6.79496 12 6.00196C12 5.20696 11.005 4.45346 9.4785 3.98596C9.8305 2.43096 9.6735 1.19246 8.9845 0.795963C8.81794 0.702292 8.63007 0.654338 8.439 0.656963ZM8.4365 1.20196V1.20496C8.549 1.20496 8.6395 1.22696 8.7155 1.26846C9.0485 1.45946 9.193 2.18596 9.0805 3.12046C9.0535 3.35046 9.0095 3.59296 8.9555 3.84046C8.44423 3.71675 7.92523 3.62755 7.402 3.57346C7.0904 3.14347 6.75048 2.73473 6.3845 2.34996C7.1805 1.60996 7.928 1.20396 8.437 1.20246L8.4365 1.20196ZM3.5515 1.21196C4.0575 1.21196 4.8085 1.61596 5.6065 2.35196C5.2635 2.71196 4.9215 3.12046 4.5965 3.57296C4.07206 3.62642 3.55197 3.71631 3.04 3.84196C2.98632 3.60747 2.94394 3.37053 2.913 3.13196C2.798 2.19796 2.94 1.47196 3.27 1.27846C3.365 1.23346 3.47 1.21446 3.5515 1.21196ZM5.9925 2.73696C6.22 2.97096 6.4475 3.23296 6.6725 3.51896C6.4525 3.50896 6.2275 3.50196 6 3.50196C5.77 3.50196 5.5425 3.50696 5.32 3.51896C5.54 3.23296 5.7675 2.97146 5.9925 2.73696ZM6 4.04996C6.37 4.04996 6.7385 4.06696 7.101 4.09646C7.304 4.38746 7.502 4.69796 7.6925 5.02646C7.8785 5.34646 8.0475 5.67146 8.2015 5.99946C8.0475 6.32696 7.8785 6.65446 7.695 6.97446C7.505 7.30446 7.3085 7.61846 7.105 7.90946C6.3711 7.97368 5.63304 7.97451 4.899 7.91196C4.68909 7.61026 4.49175 7.29999 4.3075 6.98196C4.1215 6.66196 3.9525 6.33696 3.7985 6.00896C3.95301 5.67607 4.122 5.35009 4.305 5.03196C4.495 4.70196 4.6915 4.38896 4.895 4.09796C5.26244 4.06549 5.63113 4.04914 6 4.04896V4.04996ZM4.1825 4.17696C4.0625 4.36546 3.9425 4.55846 3.8305 4.75696C3.718 4.95196 3.613 5.14796 3.513 5.34396C3.3805 5.01596 3.268 4.68896 3.175 4.37046C3.495 4.29546 3.8325 4.22846 4.1825 4.17696ZM7.8125 4.17696C8.16 4.22846 8.495 4.29196 8.8155 4.37046C8.7255 4.68646 8.613 5.01146 8.4855 5.33696C8.28147 4.93896 8.05701 4.55178 7.813 4.17696H7.8125ZM9.344 4.51446C9.586 4.58946 9.816 4.67296 10.0315 4.76346C10.8975 5.13346 11.4575 5.61746 11.4575 6.00146C11.455 6.38546 10.895 6.87146 10.029 7.23896C9.819 7.32896 9.589 7.40996 9.3515 7.48546C9.20132 6.97718 9.01758 6.47942 8.8015 5.99546C9.0265 5.48696 9.2065 4.99046 9.344 4.51346V4.51446ZM2.6465 4.51646C2.7855 4.99646 2.969 5.49496 3.1965 6.00646C2.98198 6.48753 2.80056 6.98268 2.6535 7.48846C2.4115 7.41346 2.1815 7.32946 1.9685 7.23846C1.1025 6.86996 0.5425 6.38546 0.5425 6.00146C0.5425 5.61746 1.1025 5.13046 1.9685 4.76346C2.1785 4.67346 2.4085 4.59246 2.6465 4.51646ZM8.4855 6.65646C8.618 6.98496 8.7305 7.31246 8.8235 7.63046C8.5035 7.70896 8.1655 7.77546 7.8155 7.82546C8.0592 7.44774 8.28251 7.05754 8.4855 6.65646ZM3.513 6.66646C3.613 6.86246 3.718 7.05796 3.833 7.25396C3.948 7.44896 4.0655 7.63996 4.1855 7.82546C3.84836 7.77669 3.51367 7.71229 3.1825 7.63246C3.2725 7.31746 3.3855 6.99146 3.5125 6.66596L3.513 6.66646ZM8.96 8.15996C9.016 8.40646 9.06 8.64396 9.087 8.87146C9.202 9.80546 9.06 10.5315 8.73 10.7255C8.6565 10.7705 8.561 10.7895 8.4485 10.7895C7.9425 10.7895 7.1915 10.386 6.3935 9.64946C6.7365 9.28946 7.0785 8.88146 7.4035 8.42946C7.957 8.37046 8.4805 8.27996 8.96 8.15996ZM3.045 8.16496C3.525 8.28196 4.048 8.37246 4.5985 8.43096C4.9285 8.88346 5.271 9.29446 5.616 9.65396C4.8185 10.3955 4.07 10.8015 3.561 10.8015C3.46484 10.8022 3.36995 10.7796 3.2845 10.7355C2.9515 10.5455 2.807 9.81846 2.9195 8.88396C2.9465 8.65396 2.991 8.41196 3.045 8.16496ZM5.325 8.48496C5.545 8.49496 5.77 8.50196 5.9975 8.50196C6.2275 8.50196 6.455 8.49696 6.6775 8.48496C6.4575 8.77096 6.23 9.03246 6.005 9.26746C5.7775 9.03246 5.55 8.77096 5.325 8.48496Z" fill="url(#paint0_linear_2228_127)"/>
</g>
<defs>
<linearGradient id="paint0_linear_2228_127" x1="7.57658" y1="10.2505" x2="10.8408" y2="12.0133" gradientUnits="userSpaceOnUse">
<stop offset="0.0336538" stop-color="#CDD1CC"/>
<stop offset="0.293269" stop-color="#697A64"/>
<stop offset="0.355769" stop-color="#697A64"/>
<stop offset="1" stop-color="#CDD1CC"/>
</linearGradient>
<clipPath id="clip0_2228_127">
<rect width="12" height="12" fill="white"/>
</clipPath>
</defs>
</svg>
