<svg width="15" height="13" viewBox="0 0 15 13" fill="none" xmlns="http://www.w3.org/2000/svg">
<path d="M9 8.125H6C5.58586 8.125 5.25 8.48885 5.25 8.9375V12.1875C5.25 12.6362 5.58586 13 6 13H9C9.41414 13 9.75 12.6362 9.75 12.1875V8.9375C9.75 8.48885 9.41414 8.125 9 8.125ZM4.5 0.8125C4.5 0.363848 4.16414 0 3.75 0H0.75C0.335859 0 0 0.363848 0 0.8125V4.0625C0 4.51115 0.335859 4.875 0.75 4.875H2.99344L4.70813 8.12602C4.96828 7.64207 5.44688 7.3125 6 7.3125H6.00656L4.5 4.45631V3.25H9.75V1.625H4.5V0.8125ZM14.25 0H11.25C10.8359 0 10.5 0.363848 10.5 0.8125V4.0625C10.5 4.51115 10.8359 4.875 11.25 4.875H14.25C14.6641 4.875 15 4.51115 15 4.0625V0.8125C15 0.363848 14.6641 0 14.25 0Z" fill="#DEDED1"/>
</svg>
